<svg version="1.1" xmlns="http://www.w3.org/2000/svg" xmlns:xlink="http://www.w3.org/1999/xlink" width="132.81885" height="198.53492" viewBox="0,0,132.81885,198.53492"><g transform="translate(-174,-81.70349)"><g data-paper-data="{&quot;isPaintingLayer&quot;:true}" fill-rule="nonzero" stroke="none" stroke-width="1" stroke-linecap="butt" stroke-linejoin="miter" stroke-miterlimit="10" stroke-dasharray="" stroke-dashoffset="0" style="mix-blend-mode: normal"><path d="M304.30186,225.69964c-7.82586,21.68467 -29.09865,34.86508 -63.21263,39.17778c-1.55064,0.19383 -3.07704,0.31497 -4.60345,0.36343c-1.98675,2.90744 -4.57922,5.42723 -7.63204,7.38975c-7.99547,5.11225 -15.48213,7.60781 -22.87188,7.60781c-15.19138,0 -31.54575,-11.33902 -31.54575,-36.24611c0,-1.69601 0.07269,-3.90082 0.24229,-6.95363c0.07269,-1.30835 0.14537,-2.32595 0.1696,-3.07704c-0.41189,-1.88984 -0.62995,-3.8039 -0.62995,-5.7422v-11.72668c0,-1.91407 0.19383,-3.82813 0.58149,-5.7422c0.02423,-1.62332 0.09691,-3.44047 0.21806,-5.42723c-0.58149,-2.13212 -1.0176,-4.60345 -1.0176,-7.36552c0,-1.25989 0.09691,-2.51978 0.26652,-3.75545c0.92069,-6.49329 3.8039,-13.0108 8.67387,-18.21997c-1.67178,-4.67614 -2.54401,-9.61879 -2.54401,-14.68258v-12.35663c0,-5.01534 0.99338,-11.26634 5.86334,-26.82115c2.03521,-6.68712 2.68938,-8.77078 3.58585,-10.70908c4.77305,-10.70908 11.96897,-16.06362 17.20237,-18.70454c8.55273,-4.26425 17.7354,-6.44483 27.2815,-6.44483c4.40962,0 8.62541,0.46034 12.64737,1.33258c1.79292,-1.21143 3.70699,-2.22904 5.7422,-3.07704c2.59247,-1.11452 5.35454,-1.88984 8.40735,-2.37441c7.63204,-1.30835 15.70019,0.31497 22.7265,4.57922c7.38975,4.50654 15.86979,13.85881 14.82795,33.09638c-0.1696,3.39202 -0.46034,7.92278 -0.89646,13.83458c-0.02423,0.14537 -0.02423,0.29074 -0.04846,0.43612c-0.38766,4.28848 -0.94492,10.68485 -1.69601,19.14066c0.19383,3.27087 0.12114,6.9294 -0.1696,11.24211c-0.12114,1.64755 -0.38766,3.2951 -0.82378,4.89419c-0.09691,0.36343 -0.19383,0.70263 -0.29074,1.0176c3.27087,4.19156 5.49991,8.38312 7.02632,12.01743c1.42949,2.88321 2.64093,6.20254 3.70699,10.24873c0.41189,1.52641 0.6784,3.07704 0.79955,4.65191c1.09029,13.59229 0.53303,21.61199 -1.98675,28.39602z" fill="#ffab19"/><path d="M279.72428,199.44544c0.7099,8.81197 0.56453,14.49118 -0.42642,17.04972c-4.12372,11.65157 -17.97768,18.96621 -41.55704,21.95119c-7.95912,0.9958 -15.9134,-2.76934 -23.87252,-11.29541c0,1.27927 0.28348,5.11468 0.85527,11.51105c0.42642,4.68825 0.35374,8.52365 -0.21321,11.5062c-3.55435,2.27265 -6.39395,3.4114 -8.52607,3.4114c-3.27087,0 -4.90146,-3.19576 -4.90146,-9.59214c0,-1.13633 0.07026,-2.94621 0.21321,-5.43207c0.14053,-2.48344 0.21321,-4.22548 0.21321,-5.22128c0,-2.4156 -0.21321,-4.11888 -0.63964,-5.11468v-11.72184c0,-0.28348 0.07026,-0.60329 0.21321,-0.95946c0.14053,-0.35374 0.28348,-0.67356 0.42642,-0.95946c-0.14295,-1.98675 -0.07269,-5.04199 0.21321,-9.16329c0.28348,-2.55855 0.28348,-4.18914 0,-4.90146c-0.71232,-1.41738 -1.06364,-2.27023 -1.06364,-2.55613c0.56453,-3.97835 3.48166,-5.96752 8.73686,-5.96752c3.40898,0 5.46841,1.20901 6.18074,3.62219c0,2.27265 0.28348,5.61379 0.85285,10.01614c0.85527,5.11468 3.55192,10.23177 8.09965,15.34403c4.97173,5.827 9.73024,8.52607 14.28039,8.09965c5.11468,-0.56453 10.22935,-1.77354 15.34403,-3.62219c7.10385,-2.55855 11.36568,-5.5411 12.7879,-8.95008c0.99095,-2.55855 1.49006,-5.2552 1.49006,-8.09965c0,-8.66418 -3.19576,-15.13081 -9.58971,-19.39264c-2.84445,-1.84623 -8.09965,-3.33871 -15.77287,-4.47746c-4.40477,-0.56453 -7.10627,-0.85285 -8.09723,-0.85285c-6.82037,0.14295 -13.1804,-2.05944 -19.07524,-6.60716c-5.89726,-4.5453 -8.84347,-9.80535 -8.84347,-15.77287v-12.35905c0,-2.69665 1.56275,-9.02034 4.69067,-18.96621c1.41738,-4.69067 2.19996,-7.17411 2.34534,-7.46001c1.27685,-2.98255 2.90986,-4.97173 4.89904,-5.96752c4.82878,-2.41318 9.94345,-3.62219 15.34403,-3.62219c10.51283,0 18.25631,4.26183 23.23046,12.78548c0.42642,0.42642 1.13633,1.06606 2.13212,1.91891c0.14053,-1.98675 0.42642,-5.04199 0.85285,-9.16329c-0.14295,-1.84623 -0.2859,-3.62219 -0.42642,-5.32789c0,-1.98675 0.99095,-3.33629 2.98255,-4.04861c0.56695,-0.28348 1.34954,-0.49669 2.34534,-0.63964c1.4198,-0.28348 2.94863,0.07269 4.58407,1.06364c1.63059,0.9958 2.30657,3.98077 2.0231,8.95008c-0.14295,3.1255 -0.42642,7.53027 -0.85285,13.2119c-0.42642,4.69067 -1.06364,11.86479 -1.91891,21.52719c0.28348,2.27265 0.28348,5.40057 0,9.3765c-0.71232,2.69908 -2.84445,4.04861 -6.39395,4.04861c-1.84865,0 -3.62219,-0.49669 -5.32789,-1.49006c-0.85285,-2.69665 -1.27685,-3.83782 -1.27685,-3.4114c0.28105,-3.8354 -0.49911,-8.95008 -2.34534,-15.34403c-1.56517,-3.26603 -3.72879,-7.91793 -6.50056,-13.95814c-2.77176,-6.03779 -6.43029,-9.27232 -10.97559,-9.69874c-5.68405,-0.42642 -9.3765,1.49249 -11.0822,5.75431c-0.56695,1.84865 -1.35196,4.55015 -2.34291,8.09965c-1.7057,5.25762 -2.77176,10.30204 -3.19819,15.13081c-0.14295,1.56517 -0.2859,2.20481 -0.42642,1.91891c0.42642,2.84445 0.92311,5.68405 1.49249,8.52607c0.7099,3.55192 2.45194,6.25342 5.22128,8.09723c2.77176,1.84865 8.06088,2.98255 15.87706,3.40898c19.17943,1.14117 31.04179,7.8186 35.58951,20.0347c0.70748,1.13875 1.41738,3.05524 2.1297,5.75189z" fill="#ffffff"/></g></g></svg>